<svg width="1076" height="163" viewBox="0 0 1076 163" fill="none" xmlns="http://www.w3.org/2000/svg">
<path d="M412.713 9.05704C412.729 9.50504 412.734 9.95971 412.734 10.413C412.734 10.8664 412.729 11.321 412.713 11.769C412.697 11.321 412.686 10.8664 412.686 10.413C412.686 9.95971 412.697 9.50504 412.713 9.05704Z" fill="#F0575D"/>
<path d="M267.125 88.2881L287.242 59.2748L298.057 64.7668L281.705 88.2881H267.125ZM327.457 88.2881L307.421 59.1894L296.025 42.7014L267.378 1.21475H281.846L304.653 38.4961L327.313 1.21475H341.893L311.797 44.6201L342.151 88.2881H327.457Z" fill="#F0575D"/>
<path d="M389.324 89.3745C384.456 89.0225 379.836 87.8998 375.553 86.0238C370.268 83.7132 365.626 80.4958 361.758 76.4612C357.874 72.4132 354.793 67.6105 352.598 62.1838C350.405 56.7652 349.293 50.8985 349.293 44.7518C349.293 38.6065 350.405 32.7412 352.598 27.3198C354.79 21.9012 357.869 17.1238 361.745 13.1225C365.625 9.12118 370.277 5.89584 375.572 3.53851C380.828 1.19718 386.588 0.0105056 392.696 0.0105056C398.801 0.0105056 404.562 1.19718 409.82 3.53851C415.112 5.89584 419.765 9.12118 423.646 13.1238C427.52 17.1238 430.598 21.9012 432.792 27.3198C434.985 32.7452 436.097 38.6105 436.097 44.7518C436.097 49.9878 435.3 55.0412 433.724 59.7692C432.15 64.4892 429.889 68.8052 427.002 72.5958C424.113 76.3945 420.618 79.6798 416.618 82.3585C413.309 84.5758 409.686 86.2878 405.822 87.4625L400.241 77.9758C402.538 77.3865 404.714 76.5132 406.752 75.3625C410.185 73.4212 413.188 70.8998 415.674 67.8638C418.149 64.8425 420.102 61.2932 421.48 57.3145C422.848 53.3545 423.541 49.1292 423.541 44.7518C423.541 40.1745 422.773 35.7692 421.256 31.6572C419.734 27.5345 417.609 23.8918 414.94 20.8265C412.23 17.7198 408.958 15.2318 405.212 13.4345C401.418 11.6132 397.206 10.6892 392.696 10.6892C388.182 10.6892 383.973 11.6132 380.18 13.4345C376.441 15.2278 373.153 17.7078 370.406 20.8025C367.678 23.8745 365.524 27.5278 364.001 31.6585C362.485 35.7625 361.716 40.1678 361.716 44.7518C361.716 49.3332 362.485 53.7398 364.002 57.8478C365.526 61.9838 367.681 65.6345 370.406 68.7025C373.146 71.7918 376.436 74.2732 380.18 76.0692C383.012 77.4292 386.076 78.2878 389.324 78.6372V89.3745Z" fill="#F0575D"/>
<path d="M457.581 88.2881V1.21475H496.558C500.629 1.21475 504.507 2.00008 508.086 3.55075C511.701 5.11875 514.919 7.27475 517.65 9.96408C520.362 12.6388 522.53 15.8214 524.09 19.4214C525.639 23.0001 526.426 26.8774 526.426 30.9481C526.426 35.0174 525.639 38.8948 524.09 42.4734C522.533 46.0654 520.373 49.2201 517.666 51.8494C514.934 54.4974 511.711 56.6401 508.086 58.2108C504.507 59.7614 500.629 60.5468 496.558 60.5468H488.11L481.586 48.5254H496.558C498.982 48.5254 501.309 48.0481 503.47 47.1041C505.643 46.1588 507.543 44.7974 509.114 43.0574C510.627 41.3828 511.855 39.3721 512.762 37.0814C513.675 34.7641 514.138 32.2054 514.138 29.4734C514.138 27.0788 513.669 24.7294 512.742 22.4908C511.841 20.3201 510.633 18.3628 509.149 16.6654C507.617 14.9174 505.771 13.4854 503.662 12.4014C501.439 11.2641 499.05 10.6894 496.558 10.6894H469.467V88.2881H457.581Z" fill="#F0575D"/>
<path d="M590.989 78.6009C592.438 78.1729 593.841 77.5929 595.188 76.8703C597.944 75.3929 600.404 73.4249 602.497 71.0249C604.585 68.6316 606.234 65.8503 607.4 62.7623C608.568 59.6623 609.158 56.3543 609.158 52.9263C609.158 52.7783 609.15 52.6343 609.134 52.4889C609.15 52.3089 609.158 52.1223 609.158 51.9223V1.21559H621.446V52.2569C621.446 56.5663 620.726 60.7076 619.308 64.5623C617.876 68.4503 615.886 72.0156 613.396 75.1583C610.905 78.3036 607.904 81.0343 604.476 83.2769C601.774 85.0463 598.861 86.4636 595.789 87.5063L590.989 78.6009ZM581.105 89.2183C577.197 88.8849 573.469 87.9689 569.988 86.4823C565.486 84.5609 561.488 81.8889 558.101 78.5396C554.72 75.2036 552.036 71.2356 550.118 66.7476C548.208 62.2756 547.24 57.4009 547.24 52.2569V1.21559H559.528V52.9263C559.528 56.5583 560.172 60.0209 561.441 63.2183C562.709 66.4129 564.49 69.2516 566.737 71.6503C568.982 74.0503 571.648 75.9916 574.657 77.4169C576.71 78.3929 578.87 79.0489 581.105 79.3743V89.2183Z" fill="#F0575D"/>
<path d="M704.043 52.2703V1.2156H716.868V61.4943L704.043 52.2703ZM702.436 88.2876L656.424 21.9063V88.2876H643.599V1.2156H658.031L716.868 86.0143V88.2876H702.436Z" fill="#F0575D"/>
<path d="M794.961 10.8228L790.157 1.21475H806.125V10.8228H794.961ZM765.96 88.2881V10.8228H738.352V1.21475H778.516V88.2881H765.96Z" fill="#262728"/>
<path d="M857.147 50.8956L851.808 40.2156H872.599V50.8956H857.147ZM827.61 88.2876V1.2156H883.751L883.828 10.1529H839.77L839.622 79.4849H883.723V88.2876H827.61Z" fill="#262728"/>
<path d="M941.237 89.3594C935.112 89.3594 929.266 88.1887 923.866 85.8794C918.437 83.5594 913.653 80.3514 909.646 76.342C905.636 72.3327 902.429 67.5487 900.11 62.1247C897.801 56.7194 896.629 50.8754 896.629 44.7514C896.629 38.6287 897.801 32.786 900.11 27.3807C902.429 21.9554 905.637 17.1714 909.646 13.1607C913.653 9.15537 918.438 5.94603 923.866 3.62469C929.273 1.31536 935.118 0.143361 941.237 0.143361C945.212 0.143361 949.113 0.644697 952.832 1.63803C956.553 2.6287 960.064 4.07137 963.273 5.92337C966.508 7.79003 969.516 10.0407 972.216 12.614C974.097 14.4114 975.824 16.3687 977.37 18.458L967.569 24.7407C965.029 20.858 961.814 17.6167 957.978 15.0714C953.054 11.8074 947.422 10.1527 941.237 10.1527C936.825 10.1527 932.597 11.0954 928.669 12.9567C924.8 14.794 921.388 17.306 918.52 20.422C915.664 23.522 913.37 27.206 911.704 31.3714C910.033 35.5447 909.185 40.046 909.185 44.7514C909.185 49.4567 910.033 53.9594 911.706 58.134C913.366 62.2927 915.66 65.9767 918.521 69.082C921.394 72.2047 924.809 74.7154 928.669 76.546C932.588 78.406 936.817 79.35 941.237 79.35C947.428 79.35 953.06 77.6954 957.978 74.434C961.813 71.89 965.028 68.6474 967.569 64.7634L977.372 71.046C975.824 73.1367 974.097 75.094 972.216 76.8887C969.517 79.462 966.509 81.714 963.274 83.5794C960.062 85.4314 956.55 86.874 952.832 87.8647C949.118 88.8567 945.216 89.3594 941.237 89.3594Z" fill="#262728"/>
<path d="M1000.23 1.21476H1013.05V88.2881H1000.23V1.21476ZM1060.94 88.2881V50.8961H1029.62L1024.2 40.2161H1060.94V1.21476H1073.5V88.2881H1060.94Z" fill="#262728"/>
<path d="M283.004 149.635C283.004 148.272 282.834 147.003 282.497 145.828C282.16 144.654 281.63 143.638 280.91 142.782C280.19 141.924 279.278 141.256 278.174 140.776C277.072 140.295 275.65 140.055 273.91 140.055H270.504V159.663H273.95C275.56 159.663 276.916 159.462 278.02 159.059C279.122 158.656 280.044 158.04 280.784 157.21C281.524 156.378 282.078 155.336 282.449 154.084C282.818 152.831 283.004 151.348 283.004 149.635ZM286.528 149.499C286.528 151.679 286.249 153.584 285.69 155.214C285.133 156.843 284.318 158.192 283.248 159.263C282.176 160.334 280.862 161.135 279.304 161.668C277.746 162.2 275.89 162.466 273.736 162.466H268.401C268.102 162.466 267.82 162.366 267.554 162.164C267.288 161.963 267.154 161.61 267.154 161.103V138.634C267.154 138.128 267.288 137.774 267.554 137.572C267.82 137.372 268.102 137.271 268.401 137.271H274.105C276.286 137.271 278.129 137.554 279.636 138.118C281.141 138.683 282.404 139.494 283.422 140.552C284.441 141.61 285.213 142.892 285.74 144.398C286.265 145.903 286.528 147.603 286.528 149.499Z" fill="#545660"/>
<path d="M328.091 144.261C328.091 143.274 327.871 142.441 327.43 141.759C326.987 141.077 326.248 140.587 325.21 140.289C324.884 140.198 324.518 140.133 324.11 140.094C323.7 140.055 323.164 140.035 322.503 140.035H319.679V148.525H322.951C323.834 148.525 324.596 148.418 325.239 148.203C325.882 147.989 326.416 147.691 326.844 147.307C327.274 146.925 327.588 146.474 327.79 145.954C327.991 145.435 328.091 144.871 328.091 144.261ZM333.134 161.959C333.134 162.063 333.115 162.154 333.075 162.233C333.036 162.31 332.952 162.375 332.823 162.427C332.692 162.479 332.511 162.518 332.278 162.543C332.043 162.57 331.732 162.582 331.343 162.582C331.006 162.582 330.73 162.57 330.515 162.543C330.3 162.518 330.128 162.475 329.999 162.417C329.87 162.358 329.768 162.278 329.698 162.174C329.626 162.07 329.564 161.941 329.512 161.785L327.195 155.846C326.923 155.171 326.64 154.551 326.348 153.986C326.056 153.422 325.71 152.935 325.307 152.526C324.904 152.117 324.431 151.799 323.886 151.571C323.34 151.345 322.684 151.231 321.919 151.231H319.679V161.959C319.679 162.063 319.651 162.154 319.592 162.233C319.534 162.31 319.443 162.371 319.319 162.417C319.196 162.462 319.027 162.502 318.814 162.534C318.599 162.566 318.33 162.582 318.006 162.582C317.68 162.582 317.411 162.566 317.198 162.534C316.983 162.502 316.811 162.462 316.682 162.417C316.551 162.371 316.46 162.31 316.408 162.233C316.356 162.154 316.331 162.063 316.331 161.959V138.634C316.331 138.127 316.464 137.774 316.73 137.573C316.996 137.371 317.278 137.271 317.576 137.271H322.931C323.567 137.271 324.096 137.287 324.518 137.319C324.94 137.351 325.32 137.387 325.658 137.426C326.631 137.595 327.491 137.861 328.238 138.225C328.983 138.589 329.61 139.049 330.116 139.607C330.622 140.165 331.002 140.805 331.255 141.525C331.508 142.246 331.635 143.041 331.635 143.91C331.635 144.754 331.522 145.51 331.294 146.178C331.067 146.847 330.739 147.438 330.311 147.95C329.882 148.463 329.37 148.907 328.772 149.285C328.175 149.661 327.507 149.978 326.767 150.238C327.183 150.419 327.559 150.65 327.896 150.93C328.234 151.209 328.548 151.543 328.84 151.933C329.132 152.322 329.408 152.77 329.668 153.275C329.928 153.782 330.187 154.353 330.447 154.989L332.706 160.538C332.887 161.006 333.004 161.333 333.056 161.522C333.108 161.71 333.134 161.855 333.134 161.959Z" fill="#545660"/>
<path d="M376.644 161.084C376.644 161.317 376.631 161.523 376.606 161.697C376.579 161.872 376.534 162.019 376.47 162.136C376.404 162.252 376.33 162.336 376.246 162.388C376.16 162.44 376.067 162.467 375.963 162.467H363.871C363.574 162.467 363.291 162.365 363.024 162.164C362.759 161.964 362.626 161.609 362.626 161.104V138.635C362.626 138.128 362.759 137.775 363.024 137.573C363.291 137.372 363.574 137.272 363.871 137.272H375.827C375.931 137.272 376.024 137.297 376.108 137.349C376.194 137.401 376.262 137.485 376.314 137.603C376.366 137.719 376.407 137.865 376.44 138.04C376.472 138.216 376.488 138.433 376.488 138.693C376.488 138.927 376.472 139.131 376.44 139.307C376.407 139.481 376.366 139.624 376.314 139.735C376.262 139.845 376.194 139.925 376.108 139.977C376.024 140.029 375.931 140.056 375.827 140.056H365.975V147.961H374.424C374.528 147.961 374.623 147.991 374.707 148.048C374.791 148.107 374.863 148.188 374.922 148.292C374.979 148.396 375.022 148.539 375.048 148.72C375.074 148.901 375.087 149.116 375.087 149.363C375.087 149.596 375.074 149.797 375.048 149.967C375.022 150.135 374.979 150.271 374.922 150.375C374.863 150.479 374.791 150.553 374.707 150.599C374.623 150.644 374.528 150.667 374.424 150.667H365.975V159.683H375.963C376.067 159.683 376.16 159.708 376.246 159.76C376.33 159.812 376.404 159.893 376.47 160.004C376.534 160.113 376.579 160.256 376.606 160.432C376.631 160.607 376.644 160.824 376.644 161.084Z" fill="#545660"/>
<path d="M414.333 140.62H414.313L409.972 153.179H418.733L414.333 140.62ZM425.179 161.279C425.283 161.564 425.337 161.795 425.344 161.97C425.351 162.146 425.301 162.278 425.197 162.37C425.095 162.46 424.923 162.519 424.683 162.544C424.441 162.57 424.12 162.583 423.719 162.583C423.316 162.583 422.995 162.574 422.755 162.554C422.515 162.535 422.332 162.502 422.209 162.456C422.085 162.411 421.995 162.35 421.936 162.272C421.879 162.194 421.823 162.096 421.771 161.98L419.609 155.847H409.135L407.071 161.902C407.032 162.019 406.98 162.119 406.915 162.203C406.851 162.288 406.756 162.359 406.633 162.418C406.509 162.476 406.335 162.519 406.107 162.544C405.88 162.57 405.584 162.583 405.221 162.583C404.844 162.583 404.536 162.567 404.296 162.535C404.056 162.502 403.887 162.44 403.789 162.35C403.692 162.259 403.647 162.126 403.653 161.951C403.66 161.775 403.715 161.544 403.819 161.259L412.269 137.855C412.321 137.712 412.389 137.596 412.473 137.506C412.559 137.414 412.681 137.343 412.844 137.291C413.007 137.239 413.213 137.203 413.467 137.184C413.72 137.164 414.041 137.155 414.431 137.155C414.847 137.155 415.191 137.164 415.463 137.184C415.735 137.203 415.956 137.239 416.124 137.291C416.293 137.343 416.423 137.418 416.515 137.515C416.605 137.612 416.676 137.732 416.728 137.875L425.179 161.279Z" fill="#545660"/>
<path d="M481.423 161.96C481.423 162.064 481.397 162.155 481.341 162.232C481.289 162.311 481.196 162.372 481.061 162.418C480.928 162.463 480.757 162.502 480.549 162.535C480.344 162.567 480.073 162.583 479.739 162.583C479.431 162.583 479.167 162.567 478.947 162.535C478.725 162.502 478.552 162.463 478.424 162.418C478.297 162.372 478.207 162.311 478.153 162.232C478.1 162.155 478.073 162.064 478.073 161.96V140.016H478.035L469.156 162.058C469.117 162.148 469.063 162.227 468.991 162.291C468.919 162.356 468.816 162.411 468.679 162.456C468.543 162.502 468.38 162.535 468.192 162.554C468.004 162.574 467.78 162.583 467.52 162.583C467.248 162.583 467.015 162.571 466.82 162.544C466.625 162.519 466.463 162.483 466.333 162.438C466.203 162.392 466.103 162.336 466.031 162.272C465.96 162.207 465.911 162.135 465.885 162.058L457.396 140.016H457.376V161.96C457.376 162.064 457.351 162.155 457.295 162.232C457.244 162.311 457.149 162.372 457.015 162.418C456.881 162.463 456.708 162.502 456.493 162.535C456.28 162.567 456.005 162.583 455.671 162.583C455.352 162.583 455.084 162.567 454.869 162.535C454.656 162.502 454.485 162.463 454.359 162.418C454.231 162.372 454.144 162.311 454.097 162.232C454.051 162.155 454.028 162.064 454.028 161.96V138.79C454.028 138.246 454.172 137.856 454.463 137.622C454.753 137.388 455.076 137.271 455.431 137.271H457.487C457.908 137.271 458.279 137.311 458.595 137.388C458.912 137.466 459.187 137.59 459.424 137.758C459.663 137.927 459.86 138.142 460.017 138.4C460.177 138.66 460.315 138.966 460.433 139.316L467.637 157.56H467.735L475.231 139.375C475.376 138.984 475.535 138.654 475.705 138.382C475.877 138.108 476.065 137.891 476.269 137.73C476.473 137.567 476.701 137.45 476.952 137.379C477.203 137.307 477.493 137.271 477.823 137.271H479.979C480.176 137.271 480.365 137.3 480.541 137.359C480.72 137.418 480.872 137.508 480.997 137.632C481.123 137.755 481.225 137.911 481.304 138.099C481.384 138.287 481.423 138.518 481.423 138.79V161.96Z" fill="#545660"/>
<path d="M526.296 155.399C526.296 156.58 526.079 157.631 525.644 158.553C525.209 159.475 524.605 160.256 523.833 160.899C523.06 161.541 522.152 162.025 521.107 162.349C520.063 162.675 518.936 162.836 517.729 162.836C516.885 162.836 516.103 162.765 515.383 162.623C514.663 162.48 514.02 162.304 513.455 162.096C512.891 161.889 512.417 161.675 512.033 161.455C511.651 161.233 511.385 161.045 511.236 160.889C511.087 160.733 510.976 160.536 510.904 160.296C510.833 160.056 510.797 159.735 510.797 159.332C510.797 159.047 510.811 158.809 510.836 158.621C510.863 158.433 510.901 158.28 510.953 158.164C511.005 158.047 511.071 157.965 511.148 157.92C511.225 157.875 511.316 157.852 511.42 157.852C511.603 157.852 511.859 157.963 512.189 158.183C512.52 158.404 512.945 158.644 513.465 158.904C513.984 159.163 514.611 159.407 515.344 159.633C516.077 159.861 516.924 159.975 517.885 159.975C518.612 159.975 519.277 159.877 519.88 159.683C520.484 159.488 521.003 159.212 521.439 158.855C521.873 158.497 522.207 158.06 522.441 157.54C522.675 157.021 522.791 156.431 522.791 155.768C522.791 155.055 522.629 154.444 522.304 153.939C521.98 153.432 521.552 152.988 521.02 152.604C520.487 152.221 519.88 151.871 519.199 151.553C518.517 151.235 517.82 150.911 517.105 150.58C516.392 150.249 515.697 149.881 515.023 149.48C514.348 149.077 513.744 148.604 513.212 148.059C512.68 147.513 512.248 146.873 511.917 146.14C511.585 145.407 511.42 144.528 511.42 143.503C511.42 142.451 511.612 141.513 511.995 140.688C512.377 139.864 512.909 139.173 513.592 138.615C514.273 138.057 515.084 137.632 516.025 137.34C516.967 137.048 517.983 136.901 519.072 136.901C519.631 136.901 520.192 136.951 520.756 137.048C521.321 137.145 521.853 137.275 522.353 137.437C522.853 137.599 523.297 137.781 523.687 137.983C524.076 138.184 524.333 138.345 524.456 138.469C524.58 138.592 524.66 138.689 524.7 138.761C524.739 138.832 524.771 138.923 524.797 139.033C524.823 139.144 524.843 139.277 524.855 139.433C524.868 139.588 524.875 139.789 524.875 140.036C524.875 140.269 524.865 140.477 524.845 140.66C524.827 140.841 524.797 140.993 524.757 141.117C524.719 141.24 524.664 141.331 524.592 141.389C524.521 141.448 524.44 141.477 524.349 141.477C524.207 141.477 523.983 141.387 523.677 141.204C523.372 141.023 522.999 140.819 522.557 140.591C522.116 140.364 521.593 140.156 520.991 139.968C520.387 139.78 519.708 139.685 518.956 139.685C518.255 139.685 517.644 139.78 517.125 139.968C516.607 140.156 516.177 140.407 515.84 140.717C515.503 141.029 515.249 141.399 515.081 141.828C514.912 142.256 514.828 142.711 514.828 143.191C514.828 143.892 514.991 144.495 515.315 145.001C515.639 145.508 516.071 145.956 516.609 146.345C517.148 146.735 517.761 147.091 518.449 147.416C519.137 147.74 519.839 148.068 520.552 148.399C521.267 148.729 521.967 149.093 522.655 149.489C523.343 149.885 523.956 150.352 524.495 150.891C525.033 151.429 525.468 152.065 525.8 152.8C526.131 153.533 526.296 154.399 526.296 155.399Z" fill="#545660"/>
<path d="M592.737 161.96C592.737 162.064 592.711 162.155 592.659 162.232C592.607 162.311 592.517 162.372 592.386 162.418C592.257 162.463 592.085 162.502 591.87 162.535C591.657 162.567 591.387 162.583 591.062 162.583C590.75 162.583 590.485 162.567 590.263 162.535C590.043 162.502 589.869 162.463 589.738 162.418C589.609 162.372 589.518 162.311 589.466 162.232C589.414 162.155 589.387 162.064 589.387 161.96V137.778C589.387 137.674 589.417 137.583 589.475 137.506C589.534 137.427 589.631 137.366 589.767 137.32C589.903 137.275 590.079 137.236 590.293 137.203C590.507 137.171 590.763 137.155 591.062 137.155C591.387 137.155 591.657 137.171 591.87 137.203C592.085 137.236 592.257 137.275 592.386 137.32C592.517 137.366 592.607 137.427 592.659 137.506C592.711 137.583 592.737 137.674 592.737 137.778V161.96Z" fill="#545660"/>
<path d="M643.12 161.083C643.12 161.343 643.076 161.563 642.988 161.746C642.903 161.927 642.788 162.077 642.647 162.193C642.505 162.31 642.348 162.394 642.175 162.446C641.999 162.498 641.825 162.525 641.649 162.525H640.544C640.193 162.525 639.888 162.489 639.627 162.417C639.364 162.346 639.116 162.215 638.881 162.027C638.647 161.839 638.412 161.583 638.176 161.258C637.941 160.934 637.692 160.519 637.428 160.013L629.741 145.682C629.341 144.942 628.936 144.166 628.527 143.355C628.12 142.545 627.74 141.755 627.388 140.99H627.349C627.375 141.925 627.395 142.878 627.407 143.851C627.42 144.826 627.427 145.793 627.427 146.753V161.959C627.427 162.05 627.399 162.138 627.344 162.222C627.291 162.307 627.197 162.371 627.067 162.417C626.936 162.462 626.767 162.502 626.553 162.534C626.341 162.566 626.071 162.582 625.743 162.582C625.413 162.582 625.143 162.566 624.929 162.534C624.717 162.502 624.549 162.462 624.427 162.417C624.303 162.371 624.213 162.307 624.16 162.222C624.105 162.138 624.077 162.05 624.077 161.959V138.711C624.077 138.193 624.225 137.822 624.519 137.602C624.815 137.381 625.136 137.271 625.484 137.271H627.133C627.521 137.271 627.845 137.303 628.107 137.369C628.368 137.433 628.603 137.541 628.811 137.689C629.019 137.838 629.22 138.046 629.412 138.313C629.608 138.578 629.812 138.913 630.024 139.315L635.933 150.374C636.297 151.05 636.649 151.709 636.987 152.351C637.325 152.993 637.652 153.626 637.965 154.249C638.28 154.873 638.589 155.486 638.899 156.089C639.205 156.693 639.508 157.299 639.809 157.91H639.829C639.804 156.885 639.787 155.817 639.781 154.707C639.775 153.597 639.771 152.529 639.771 151.503V137.835C639.771 137.745 639.799 137.661 639.853 137.582C639.908 137.505 640 137.437 640.129 137.378C640.261 137.319 640.432 137.277 640.644 137.251C640.856 137.225 641.133 137.213 641.476 137.213C641.779 137.213 642.037 137.225 642.257 137.251C642.476 137.277 642.648 137.319 642.771 137.378C642.895 137.437 642.984 137.505 643.037 137.582C643.092 137.661 643.12 137.745 643.12 137.835V161.083Z" fill="#545660"/>
<path d="M690.252 138.712C690.252 138.959 690.239 139.174 690.213 139.355C690.187 139.536 690.145 139.683 690.087 139.792C690.028 139.903 689.957 139.984 689.872 140.036C689.788 140.088 689.693 140.114 689.589 140.114H682.503V161.96C682.503 162.064 682.477 162.155 682.425 162.232C682.373 162.311 682.283 162.372 682.152 162.418C682.023 162.463 681.851 162.502 681.636 162.535C681.423 162.567 681.153 162.583 680.828 162.583C680.516 162.583 680.251 162.567 680.029 162.535C679.809 162.502 679.633 162.463 679.504 162.418C679.375 162.372 679.284 162.311 679.232 162.232C679.18 162.155 679.153 162.064 679.153 161.96V140.114H672.067C671.963 140.114 671.868 140.088 671.784 140.036C671.7 139.984 671.632 139.903 671.58 139.792C671.528 139.683 671.485 139.536 671.453 139.355C671.42 139.174 671.404 138.959 671.404 138.712C671.404 138.466 671.42 138.248 671.453 138.06C671.485 137.872 671.528 137.719 671.58 137.603C671.632 137.486 671.7 137.402 671.784 137.35C671.868 137.298 671.963 137.271 672.067 137.271H689.589C689.693 137.271 689.788 137.298 689.872 137.35C689.957 137.402 690.028 137.486 690.087 137.603C690.145 137.719 690.187 137.872 690.213 138.06C690.239 138.248 690.252 138.466 690.252 138.712Z" fill="#545660"/>
<path d="M734.97 149.811C734.97 148.383 734.844 147.056 734.59 145.829C734.337 144.603 733.917 143.537 733.326 142.636C732.738 141.733 731.949 141.029 730.964 140.523C729.98 140.017 728.761 139.764 727.309 139.764C725.857 139.764 724.638 140.036 723.653 140.581C722.668 141.127 721.866 141.853 721.252 142.763C720.636 143.671 720.196 144.732 719.929 145.945C719.664 147.16 719.53 148.435 719.53 149.772C719.53 151.252 719.653 152.615 719.9 153.86C720.146 155.107 720.561 156.181 721.145 157.083C721.728 157.985 722.509 158.687 723.488 159.185C724.466 159.685 725.694 159.936 727.172 159.936C728.637 159.936 729.869 159.663 730.866 159.117C731.865 158.572 732.669 157.836 733.278 156.908C733.888 155.98 734.321 154.905 734.581 153.685C734.841 152.465 734.97 151.173 734.97 149.811ZM738.514 149.577C738.514 151.615 738.274 153.452 737.793 155.087C737.313 156.723 736.596 158.115 735.642 159.264C734.688 160.412 733.49 161.295 732.05 161.912C730.609 162.528 728.928 162.836 727.006 162.836C725.112 162.836 723.473 162.555 722.09 161.989C720.708 161.425 719.566 160.604 718.664 159.527C717.761 158.449 717.09 157.112 716.649 155.516C716.208 153.919 715.986 152.083 715.986 150.005C715.986 148.02 716.226 146.215 716.706 144.592C717.188 142.971 717.908 141.591 718.868 140.455C719.829 139.319 721.029 138.443 722.47 137.827C723.912 137.209 725.592 136.901 727.513 136.901C729.369 136.901 730.985 137.181 732.361 137.739C733.737 138.297 734.882 139.112 735.798 140.183C736.713 141.253 737.394 142.577 737.842 144.155C738.29 145.732 738.514 147.539 738.514 149.577Z" fill="#545660"/>
<path d="M813.872 144.261C813.872 143.274 813.652 142.441 813.211 141.759C812.77 141.077 812.03 140.587 810.991 140.289C810.666 140.198 810.299 140.133 809.891 140.094C809.482 140.055 808.946 140.035 808.284 140.035H805.462V148.525H808.732C809.615 148.525 810.378 148.418 811.02 148.203C811.663 147.989 812.198 147.691 812.626 147.307C813.055 146.925 813.37 146.474 813.571 145.954C813.772 145.435 813.872 144.871 813.872 144.261ZM818.915 161.959C818.915 162.063 818.896 162.154 818.856 162.233C818.818 162.31 818.734 162.375 818.604 162.427C818.474 162.479 818.292 162.518 818.059 162.543C817.824 162.57 817.514 162.582 817.124 162.582C816.787 162.582 816.511 162.57 816.296 162.543C816.082 162.518 815.911 162.475 815.78 162.417C815.651 162.358 815.55 162.278 815.479 162.174C815.407 162.07 815.346 161.941 815.294 161.785L812.976 155.846C812.704 155.171 812.422 154.551 812.13 153.986C811.838 153.422 811.491 152.935 811.088 152.526C810.686 152.117 810.212 151.799 809.667 151.571C809.122 151.345 808.466 151.231 807.7 151.231H805.462V161.959C805.462 162.063 805.432 162.154 805.374 162.233C805.315 162.31 805.224 162.371 805.1 162.417C804.978 162.462 804.808 162.502 804.595 162.534C804.38 162.566 804.111 162.582 803.787 162.582C803.462 162.582 803.192 162.566 802.979 162.534C802.764 162.502 802.592 162.462 802.463 162.417C802.332 162.371 802.242 162.31 802.19 162.233C802.138 162.154 802.112 162.063 802.112 161.959V138.634C802.112 138.127 802.246 137.774 802.511 137.573C802.778 137.371 803.06 137.271 803.358 137.271H808.712C809.348 137.271 809.878 137.287 810.299 137.319C810.722 137.351 811.102 137.387 811.439 137.426C812.412 137.595 813.272 137.861 814.019 138.225C814.764 138.589 815.391 139.049 815.898 139.607C816.403 140.165 816.783 140.805 817.036 141.525C817.29 142.246 817.416 143.041 817.416 143.91C817.416 144.754 817.303 145.51 817.075 146.178C816.848 146.847 816.52 147.438 816.092 147.95C815.664 148.463 815.151 148.907 814.554 149.285C813.956 149.661 813.288 149.978 812.548 150.238C812.964 150.419 813.34 150.65 813.678 150.93C814.015 151.209 814.33 151.543 814.622 151.933C814.914 152.322 815.19 152.77 815.45 153.275C815.71 153.782 815.968 154.353 816.228 154.989L818.487 160.538C818.668 161.006 818.786 161.333 818.838 161.522C818.89 161.71 818.915 161.855 818.915 161.959Z" fill="#545660"/>
<path d="M862.426 161.084C862.426 161.317 862.412 161.523 862.387 161.697C862.36 161.872 862.315 162.019 862.251 162.136C862.186 162.252 862.111 162.336 862.027 162.388C861.942 162.44 861.848 162.467 861.744 162.467H849.652C849.355 162.467 849.072 162.365 848.806 162.164C848.54 161.964 848.407 161.609 848.407 161.104V138.635C848.407 138.128 848.54 137.775 848.806 137.573C849.072 137.372 849.355 137.272 849.652 137.272H861.608C861.712 137.272 861.806 137.297 861.89 137.349C861.975 137.401 862.043 137.485 862.095 137.603C862.147 137.719 862.188 137.865 862.222 138.04C862.254 138.216 862.27 138.433 862.27 138.693C862.27 138.927 862.254 139.131 862.222 139.307C862.188 139.481 862.147 139.624 862.095 139.735C862.043 139.845 861.975 139.925 861.89 139.977C861.806 140.029 861.712 140.056 861.608 140.056H851.756V147.961H860.206C860.31 147.961 860.404 147.991 860.488 148.048C860.572 148.107 860.644 148.188 860.703 148.292C860.76 148.396 860.803 148.539 860.83 148.72C860.855 148.901 860.868 149.116 860.868 149.363C860.868 149.596 860.855 149.797 860.83 149.967C860.803 150.135 860.76 150.271 860.703 150.375C860.644 150.479 860.572 150.553 860.488 150.599C860.404 150.644 860.31 150.667 860.206 150.667H851.756V159.683H861.744C861.848 159.683 861.942 159.708 862.027 159.76C862.111 159.812 862.186 159.893 862.251 160.004C862.315 160.113 862.36 160.256 862.387 160.432C862.412 160.607 862.426 160.824 862.426 161.084Z" fill="#545660"/>
<path d="M900.114 140.62H900.094L895.753 153.179H904.514L900.114 140.62ZM910.959 161.279C911.063 161.564 911.118 161.795 911.125 161.97C911.131 162.146 911.082 162.278 910.978 162.37C910.875 162.46 910.703 162.519 910.462 162.544C910.222 162.57 909.901 162.583 909.499 162.583C909.097 162.583 908.775 162.574 908.535 162.554C908.295 162.535 908.113 162.502 907.99 162.456C907.866 162.411 907.775 162.35 907.717 162.272C907.659 162.194 907.603 162.096 907.551 161.98L905.39 155.847H894.915L892.851 161.902C892.813 162.019 892.761 162.119 892.695 162.203C892.631 162.288 892.537 162.359 892.414 162.418C892.29 162.476 892.115 162.519 891.887 162.544C891.661 162.57 891.365 162.583 891.002 162.583C890.625 162.583 890.317 162.567 890.077 162.535C889.837 162.502 889.669 162.44 889.57 162.35C889.473 162.259 889.427 162.126 889.434 161.951C889.441 161.775 889.495 161.544 889.599 161.259L898.05 137.855C898.102 137.712 898.17 137.596 898.254 137.506C898.339 137.414 898.462 137.343 898.625 137.291C898.787 137.239 898.994 137.203 899.247 137.184C899.501 137.164 899.822 137.155 900.211 137.155C900.627 137.155 900.971 137.164 901.243 137.184C901.515 137.203 901.737 137.239 901.906 137.291C902.074 137.343 902.203 137.418 902.295 137.515C902.386 137.612 902.457 137.732 902.509 137.875L910.959 161.279Z" fill="#545660"/>
<path d="M952.873 161.006C952.873 161.266 952.86 161.483 952.835 161.658C952.808 161.834 952.767 161.983 952.708 162.106C952.649 162.23 952.579 162.32 952.493 162.379C952.409 162.436 952.309 162.466 952.192 162.466H941.055C940.756 162.466 940.473 162.366 940.208 162.164C939.941 161.963 939.808 161.61 939.808 161.103V137.778C939.808 137.674 939.835 137.583 939.887 137.504C939.939 137.427 940.029 137.366 940.159 137.319C940.289 137.274 940.464 137.235 940.685 137.203C940.905 137.171 941.172 137.154 941.483 137.154C941.808 137.154 942.077 137.171 942.291 137.203C942.505 137.235 942.677 137.274 942.807 137.319C942.937 137.366 943.028 137.427 943.08 137.504C943.132 137.583 943.157 137.674 943.157 137.778V159.564H952.192C952.309 159.564 952.409 159.594 952.493 159.652C952.579 159.711 952.649 159.795 952.708 159.906C952.767 160.016 952.808 160.162 952.835 160.344C952.86 160.526 952.873 160.746 952.873 161.006Z" fill="#545660"/>
<path d="M984.565 161.96C984.565 162.064 984.54 162.155 984.488 162.232C984.436 162.311 984.345 162.372 984.214 162.418C984.085 162.463 983.913 162.502 983.698 162.535C983.485 162.567 983.216 162.583 982.89 162.583C982.578 162.583 982.313 162.567 982.092 162.535C981.872 162.502 981.697 162.463 981.566 162.418C981.437 162.372 981.346 162.311 981.294 162.232C981.242 162.155 981.216 162.064 981.216 161.96V137.778C981.216 137.674 981.245 137.583 981.304 137.506C981.362 137.427 981.46 137.366 981.596 137.32C981.732 137.275 981.908 137.236 982.121 137.203C982.336 137.171 982.592 137.155 982.89 137.155C983.216 137.155 983.485 137.171 983.698 137.203C983.913 137.236 984.085 137.275 984.214 137.32C984.345 137.366 984.436 137.427 984.488 137.506C984.54 137.583 984.565 137.674 984.565 137.778V161.96Z" fill="#545660"/>
<path d="M1031.7 138.712C1031.7 138.959 1031.68 139.174 1031.66 139.355C1031.63 139.536 1031.59 139.683 1031.53 139.792C1031.47 139.903 1031.4 139.984 1031.32 140.036C1031.23 140.088 1031.14 140.114 1031.03 140.114H1023.95V161.96C1023.95 162.064 1023.92 162.155 1023.87 162.232C1023.82 162.311 1023.73 162.372 1023.6 162.418C1023.47 162.463 1023.29 162.502 1023.08 162.535C1022.87 162.567 1022.6 162.583 1022.27 162.583C1021.96 162.583 1021.69 162.567 1021.47 162.535C1021.25 162.502 1021.08 162.463 1020.95 162.418C1020.82 162.372 1020.73 162.311 1020.68 162.232C1020.62 162.155 1020.6 162.064 1020.6 161.96V140.114H1013.51C1013.41 140.114 1013.31 140.088 1013.23 140.036C1013.14 139.984 1013.08 139.903 1013.02 139.792C1012.97 139.683 1012.93 139.536 1012.9 139.355C1012.86 139.174 1012.85 138.959 1012.85 138.712C1012.85 138.466 1012.86 138.248 1012.9 138.06C1012.93 137.872 1012.97 137.719 1013.02 137.603C1013.08 137.486 1013.14 137.402 1013.23 137.35C1013.31 137.298 1013.41 137.271 1013.51 137.271H1031.03C1031.14 137.271 1031.23 137.298 1031.32 137.35C1031.4 137.402 1031.47 137.486 1031.53 137.603C1031.59 137.719 1031.63 137.872 1031.66 138.06C1031.68 138.248 1031.7 138.466 1031.7 138.712Z" fill="#545660"/>
<path d="M1068 152.672V161.96C1068 162.063 1067.98 162.155 1067.92 162.232C1067.87 162.31 1067.78 162.372 1067.65 162.418C1067.52 162.463 1067.35 162.502 1067.13 162.534C1066.91 162.567 1066.65 162.583 1066.34 162.583C1066.01 162.583 1065.75 162.567 1065.53 162.534C1065.32 162.502 1065.15 162.463 1065.01 162.418C1064.87 162.372 1064.78 162.31 1064.73 162.232C1064.68 162.155 1064.65 162.063 1064.65 161.96V152.672L1057.53 138.459C1057.38 138.16 1057.3 137.927 1057.26 137.758C1057.23 137.59 1057.26 137.459 1057.36 137.368C1057.46 137.278 1057.63 137.219 1057.89 137.194C1058.14 137.167 1058.48 137.154 1058.91 137.154C1059.3 137.154 1059.61 137.167 1059.85 137.194C1060.09 137.219 1060.28 137.255 1060.43 137.3C1060.57 137.346 1060.68 137.411 1060.75 137.495C1060.82 137.579 1060.89 137.687 1060.95 137.816L1064.44 145.059C1064.76 145.747 1065.08 146.467 1065.41 147.22C1065.73 147.974 1066.06 148.732 1066.39 149.499H1066.43C1066.73 148.759 1067.04 148.022 1067.35 147.288C1067.67 146.555 1067.99 145.831 1068.31 145.118L1071.82 137.835C1071.86 137.706 1071.91 137.595 1071.98 137.504C1072.05 137.414 1072.15 137.346 1072.27 137.3C1072.4 137.255 1072.57 137.219 1072.79 137.194C1073.01 137.167 1073.29 137.154 1073.63 137.154C1074.1 137.154 1074.46 137.171 1074.73 137.203C1074.99 137.235 1075.18 137.296 1075.28 137.388C1075.39 137.479 1075.42 137.608 1075.39 137.778C1075.36 137.946 1075.27 138.174 1075.13 138.459L1068 152.672Z" fill="#545660"/>
<path d="M194.962 154.584L141.046 155.232L67.5752 83.3232C67.4259 83.4392 67.2752 83.5725 67.1259 83.6885C33.8966 111.07 16.8326 134.663 23.4286 148.503C27.2339 156.495 38.5152 160.399 55.4792 160.632C26.6686 164.404 7.16321 161.396 1.99521 150.563C-7.09279 131.506 30.4899 93.3085 93.0459 53.4992L93.4112 53.1338L93.4939 53.2165C101.619 48.0498 110.143 42.8658 119.065 37.6978C119.082 37.6818 119.098 37.6645 119.114 37.6645C128.834 32.0325 138.986 26.4005 149.537 20.8512C164.258 13.6725 180.274 7.15916 197.338 1.49382C160.187 20.5352 126.907 40.3565 99.5752 59.2978" fill="#F0575D"/>
<path d="M87.3191 48.8404L56.2418 17.4817L0.0324707 15.5657L55.1965 69.8857L87.3191 48.8404Z" fill="#262728"/>
</svg>
